<?xml version="1.0" encoding="utf-8"?><!DOCTYPE svg PUBLIC "-//W3C//DTD SVG 1.1//EN" "http://www.w3.org/Graphics/SVG/1.1/DTD/svg11.dtd"><svg version="1.1" id="Contours" xmlns="http://www.w3.org/2000/svg" xmlns:xlink="http://www.w3.org/1999/xlink" x="0px" y="0px" width="1822.851685px" height="1822.851685px" viewBox="-0.000000 0.000000 1822.851685 1119.957642" enable-background="new 0 0 1822.851685 1822.851685" xml:space="preserve" stroke="black" fill="none" stroke-linecap='round' stroke-linejoin='round'><path class="selected"  fill="#000000" opacity="1.000000" stroke="none" 
 	d="
M1187.970573 666.908507 C1180.178215 652.449523 1172.248039 638.430480 1165.177116 623.990660 C1151.817009 596.707335 1141.494987 568.265868 1134.759392 538.604796 C1131.533439 524.398924 1128.219230 510.180846 1125.882194 495.815825 C1124.072990 484.695128 1123.318474 473.355345 1122.816765 462.080870 C1122.104118 446.069335 1121.445915 430.010558 1121.914299 414.005614 C1122.284294 401.363188 1123.879875 388.691619 1125.848991 376.177458 C1128.315422 360.503020 1130.798698 344.725157 1134.959343 329.450835 C1139.901115 311.308653 1146.078483 293.442900 1152.770500 275.856963 C1157.910393 262.349944 1164.219963 249.227416 1170.824943 236.352355 C1181.403801 215.731612 1194.004631 196.335005 1207.671989 177.582762 C1224.578483 154.386168 1243.748283 133.213744 1264.807609 113.868842 C1277.903679 101.838889 1292.223503 91.108130 1306.291984 80.177909 C1326.452019 64.515135 1348.540397 51.933653 1371.512199 40.916587 C1391.712883 31.228510 1412.534416 22.995236 1434.199333 17.276393 C1450.355827 13.011628 1466.688957 9.204766 1483.143425 6.343706 C1497.799553 3.795296 1512.692985 2.184501 1527.549064 1.323700 C1545.370231 0.291096 1563.321770 -0.552030 1581.108513 0.448184 C1599.381828 1.475778 1617.536491 4.737032 1635.721794 7.179839 C1661.011955 10.577058 1685.375114 17.792748 1709.310173 26.280787 C1731.132316 34.019583 1752.445061 43.121798 1772.327995 55.179072 C1786.996696 64.074431 1801.622673 73.044737 1816.127067 82.204260 C1823.904289 87.115523 1824.885612 92.814139 1819.330681 99.984122 C1811.578117 109.991027 1803.522453 119.762587 1795.693229 129.711043 C1787.497429 140.125365 1779.409538 150.624877 1771.286003 161.096099 C1763.264030 171.436782 1755.243522 181.778700 1747.246208 192.138472 C1736.037956 206.657820 1724.923820 221.250441 1713.636589 235.707945 C1701.229484 251.599715 1688.604973 267.321684 1676.197624 283.213194 C1662.448967 300.822692 1648.878288 318.571227 1635.115471 336.169615 C1633.488273 338.250365 1633.502189 338.831755 1635.644157 340.798522 C1652.622062 356.387663 1670.196159 371.461150 1685.904411 388.265898 C1705.523308 409.254180 1722.740227 432.331633 1736.699821 457.613524 C1744.481926 471.707305 1752.754021 485.589720 1759.561149 500.149077 C1770.556511 523.665404 1779.908439 547.886473 1785.704216 573.307738 C1789.457390 589.769042 1793.532341 606.179076 1796.547844 622.778380 C1798.470817 633.363036 1798.890129 644.239318 1799.675163 655.007262 C1800.540886 666.883116 1801.581047 678.785033 1801.574089 690.675047 C1801.566765 702.899108 1801.045036 715.201720 1799.585197 727.329955 C1796.431267 753.533141 1792.520256 779.655394 1783.694328 804.708556 C1777.497185 822.299681 1771.729851 840.085753 1764.561271 857.280638 C1753.966179 882.694274 1740.381706 906.634703 1724.612053 929.201659 C1715.758293 941.872130 1706.368400 954.265563 1696.209343 965.901366 C1683.849235 980.058226 1670.982048 993.878417 1657.299431 1006.743712 C1644.652946 1018.634886 1631.121940 1029.730162 1617.115349 1039.995787 C1596.245354 1055.291564 1574.092766 1068.716979 1550.604240 1079.689757 C1525.790397 1091.281554 1500.208244 1100.900084 1473.474235 1107.106383 C1459.285271 1110.400572 1445.019890 1113.419615 1430.694450 1116.047667 C1423.587639 1117.351500 1416.280021 1117.800231 1409.041130 1118.099547 C1388.824455 1118.935607 1368.589104 1120.151305 1348.375114 1119.931456 C1334.414787 1119.779845 1320.478874 1117.477721 1306.529655 1116.161803 C1285.623405 1114.189635 1265.173332 1109.611632 1245.056755 1103.961363 C1228.600822 1099.339171 1212.443718 1093.462218 1196.508903 1087.233824 C1183.757927 1082.249938 1171.379631 1076.222350 1159.121696 1070.086974 C1138.232292 1059.631407 1118.742302 1046.886901 1099.907951 1033.070006 C1096.309929 1030.430480 1096.073479 1029.779723 1098.993278 1026.094542 C1114.424553 1006.617735 1129.277214 986.683653 1144.423088 966.979308 C1160.273796 946.357665 1176.194206 925.789366 1192.150383 905.249083 C1204.112785 889.849913 1216.249870 874.586119 1228.181389 859.163146 C1240.172966 843.662474 1251.951530 827.996886 1263.929558 812.485533 C1271.363029 802.859068 1278.893181 793.302489 1286.601677 783.896239 C1288.735954 781.291930 1288.205803 779.858519 1285.984489 777.860411 C1271.512810 764.842589 1256.250725 752.553649 1242.955559 738.419249 C1229.473991 724.086730 1217.759147 708.058592 1205.672600 692.461424 C1199.406364 684.375060 1194.009880 675.614501 1187.970573 666.908507 M1378.720573 665.658507 C1381.195793 662.516600 1383.672600 659.375914 1386.146110 656.232543 C1397.221184 642.158507 1408.361931 628.135314 1419.350212 613.993651 C1429.222648 601.288085 1438.826774 588.373534 1448.732048 575.694029 C1460.164543 561.059569 1471.909172 546.668639 1483.315056 532.013915 C1497.804436 513.397582 1511.991447 494.545958 1526.491447 475.938079 C1540.261833 458.266448 1554.338859 440.834258 1568.147209 423.192046 C1579.449211 408.752135 1590.499748 394.115813 1601.764152 379.646147 C1610.512565 368.408507 1619.590568 357.421599 1628.097771 346.007048 C1629.643059 343.933623 1633.573967 341.800231 1630.972404 337.865508 C1630.679069 337.421752 1630.755485 336.733458 1630.660637 336.158507 C1630.013908 336.442565 1629.146965 336.549407 1628.754265 337.037688 C1624.141960 342.771453 1619.557487 348.528929 1615.049064 354.344786 C1603.713371 368.968474 1592.419426 383.624419 1581.110832 398.269194 C1573.215080 408.494383 1565.349479 418.742949 1557.422478 428.943724 C1549.089714 439.666869 1540.743156 450.379851 1532.323479 461.034606 C1523.185417 472.598204 1513.857048 484.012480 1504.793083 495.633360 C1494.897453 508.320494 1485.299919 521.240355 1475.404167 533.927428 C1466.340202 545.548216 1456.936027 556.904112 1447.891960 568.540099 C1437.044670 582.496337 1426.529899 596.711302 1415.668571 610.656432 C1404.257561 625.307372 1392.531730 639.712706 1381.082512 654.334166 C1369.675407 668.901732 1358.442131 683.605467 1347.130729 698.247985 C1339.329094 708.346922 1331.564689 718.475035 1323.709831 728.532347 C1314.948601 739.750243 1305.944938 750.782958 1297.380241 762.147582 C1294.325432 766.200987 1292.182731 770.955870 1289.792961 775.479918 C1289.460808 776.108763 1290.104118 777.252928 1290.295891 778.158507 C1290.857414 777.571898 1291.453117 777.014098 1291.974846 776.394042 C1295.402214 772.319701 1298.946525 768.335021 1302.207268 764.130675 C1315.693352 746.742797 1329.052727 729.256590 1342.534660 711.865416 C1354.377189 696.588927 1366.321281 681.391051 1378.720573 665.658507 z"/><path class="selected"  fill="#000000" opacity="1.000000" stroke="none" 
 	d="
M857.720573 134.158507 C864.053947 155.366683 870.341545 176.089003 876.732719 196.779311 C883.896599 219.971007 891.182182 243.125090 898.363396 266.311492 C905.821159 290.390563 913.251335 314.478331 920.630119 338.581694 C926.925102 359.144530 933.075371 379.751708 939.389091 400.308745 C947.106865 425.436827 955.001701 450.510558 962.682060 475.649993 C968.922233 496.075743 974.846367 516.598265 981.114616 537.015196 C988.873222 562.286498 996.904350 587.473998 1004.697624 612.734740 C1009.488029 628.262206 1014.014946 643.870787 1018.729179 659.421996 C1027.031853 686.810546 1035.321647 714.203185 1043.740837 741.555968 C1050.926140 764.900633 1058.350456 788.171752 1065.548942 811.512450 C1071.886711 832.061949 1078.086784 852.654173 1084.287834 873.245543 C1086.521721 880.663695 1088.236442 888.261229 1090.906120 895.512450 C1091.851433 898.079772 1091.795280 898.268126 1089.419670 898.164366 C1088.588005 898.127989 1087.753410 898.158507 1086.920158 898.158507 C726.114555 898.158507 365.308983 898.154540 4.503407 898.215148 C0.828445 898.215758 -1.022239 898.515624 0.579598 893.518187 C8.227451 869.658629 15.357553 845.633483 22.729400 821.685057 C29.279949 800.404723 35.924946 779.153380 42.493450 757.878600 C48.880901 737.190184 55.267441 716.501402 61.574341 695.788329 C67.524132 676.248107 73.300072 656.654845 79.277695 637.123229 C87.695183 609.619383 96.287597 582.169005 104.691910 554.661254 C110.796516 534.680541 116.677513 514.631590 122.730057 494.634856 C131.693504 465.020934 140.674782 435.412261 149.735542 405.828032 C156.572853 383.503569 163.563331 361.226073 170.454918 338.918181 C177.895439 314.833434 185.363121 290.756804 192.700493 266.640593 C198.467262 247.686568 203.999611 228.661330 209.733497 209.697173 C218.016304 182.302718 226.336754 154.919386 234.735267 127.560225 C242.585243 101.988036 250.582847 76.461211 258.466972 50.899459 C262.935234 36.412531 267.297233 21.892840 271.734337 7.396243 C272.165458 5.987665 272.788811 4.637930 273.322929 3.260877 C273.788811 4.567789 274.309776 5.857978 274.712364 7.184105 C281.723747 30.279154 288.663109 53.396243 295.738029 76.471778 C301.856193 96.426779 308.137962 116.331580 314.323662 136.265929 C322.114067 161.371642 329.953331 186.462523 337.631431 211.602584 C342.831352 228.628417 347.637901 245.774901 352.890190 262.784117 C362.057426 292.471617 371.471794 322.082701 380.704979 351.749968 C385.761345 367.996459 390.695366 384.281340 395.619835 400.568450 C403.681145 427.230437 411.610954 453.932463 419.746361 480.571745 C425.841759 500.530974 432.199333 520.410033 438.392845 540.339476 C446.193992 565.442137 454.014915 590.538939 461.698936 615.677550 C467.806175 635.657775 473.652763 655.717528 479.736870 675.704955 C488.339287 703.965514 497.006920 732.206481 505.735130 760.428465 C512.997429 783.910826 520.472832 807.327513 527.692314 830.822875 C533.056816 848.281310 538.154411 865.821715 543.397636 883.317565 C543.883171 884.937804 544.562126 886.499999 545.151237 888.089171 C545.740410 886.546202 546.404777 885.027342 546.906486 883.456420 C550.197502 873.151610 553.524101 862.857298 556.706901 852.518859 C565.080742 825.318785 573.349052 798.086241 581.732170 770.889098 C588.927849 747.544249 596.263420 724.242613 603.465324 700.899718 C611.171501 675.922179 618.793632 650.918761 626.452446 625.926634 C634.111198 600.934508 641.755424 575.937926 649.433037 550.951537 C656.836845 526.855834 664.337761 502.789702 671.679069 478.674986 C677.899162 458.242980 683.838798 437.725279 690.108208 417.308684 C697.867973 392.038024 705.919670 366.856993 713.691337 341.589934 C718.515434 325.906035 722.971855 310.109343 727.738884 294.407530 C736.006584 267.175078 744.337822 239.961638 752.735771 212.769072 C759.943291 189.430922 767.345207 166.152739 774.542534 142.811461 C780.879143 122.261550 786.996513 101.644148 793.310295 81.087119 C801.028007 55.959071 808.851127 30.863360 816.612480 5.748676 C816.752556 5.295316 816.631035 4.766312 816.734428 4.295169 C816.884880 3.609661 817.128898 2.944701 817.333061 2.270995 C817.462211 2.884112 817.544121 3.511731 817.727348 4.108250 C824.719291 26.875916 831.686333 49.651316 838.731010 72.402686 C844.629509 91.452437 850.622795 110.472838 856.564018 129.509383 C856.991569 130.879317 857.336967 132.274870 857.720573 134.158507 z"/></svg>